<svg width="458" height="352" viewBox="0 0 458 352" fill="none" xmlns="http://www.w3.org/2000/svg">
<path fill-rule="evenodd" clip-rule="evenodd" d="M181.774 56.09L178.929 60.967H176.2L175.33 62.401H178.087L172.018 72.784C170.741 74.992 171.642 77.03 174.08 77.03C175.303 77.03 176.618 76.393 177.933 75.409L177.155 76.743H180.201L184.789 68.856C189.433 63.089 191.495 63.836 190.188 66.046L186.268 72.786C184.99 74.996 185.891 77.034 188.329 77.034C190.125 77.034 192.117 75.664 194.022 73.829C194.168 75.686 195.689 77.034 198.112 77.034C201.535 77.034 204.932 74.394 207.428 71.526C207.231 71.123 206.709 70.665 206.302 70.493L206.099 70.719C203.921 73.216 201.135 75.194 199.017 75.194C197.157 75.194 196.053 74.048 197.447 71.639L197.737 71.119C199.683 71.924 203.341 71.55 205.605 67.679L206.042 66.932C207.667 64.179 206.1 62.114 203.632 62.114C201.193 62.114 199.249 63.377 197.972 65.555L195.042 70.52L194.866 70.72C192.689 73.214 190.571 75.192 189.235 75.192C188.569 75.192 188.189 74.732 188.885 73.557L193.24 66.014C194.546 63.749 193.3 62.114 191.616 62.114C190.309 62.114 188.914 62.831 187.406 64.379L192.224 56.09H189.205L180.782 70.528L180.612 70.718C178.436 73.214 176.315 75.192 174.979 75.192C174.312 75.192 173.935 74.732 174.633 73.557L181.105 62.399H183.572L184.444 60.966H181.948L184.793 56.091L181.774 56.09ZM149.465 60.969L152.31 56.094H155.329L152.483 60.967H154.982L154.11 62.403H151.645L145.169 73.561C144.472 74.736 144.85 75.196 145.517 75.196C146.852 75.196 148.974 73.217 151.15 70.721L151.306 70.545L152.543 68.455L154.023 65.902C155.765 62.918 157.563 62.002 159.885 62.002C162.731 62.002 164.414 64.955 162.586 68.082L159.741 72.928C161.252 72.899 162.935 72.184 164.299 70.721L164.504 70.493C164.91 70.665 165.432 71.122 165.632 71.526C164.092 73.332 161.248 74.422 159.448 74.422H158.782C155.513 78.506 150.166 77.763 150.172 73.961C148.306 75.73 146.369 77.034 144.615 77.034C142.177 77.034 141.276 74.996 142.554 72.787L148.622 62.404H145.865L146.735 60.969H149.465ZM160.263 66.967C161.291 65.225 160.825 64.02 159.841 63.93C159.076 63.86 157.998 64.466 157.071 66.022L155.62 68.459L153.326 72.387C151.526 75.484 154.983 75.943 156.405 73.533L156.435 73.477C156.26 73.189 156.144 72.844 156.144 72.473C156.144 71.498 156.927 70.694 157.914 70.694H158.059L160.263 66.967ZM203.575 66.936C204.587 65.192 204.055 64.275 203.086 64.332V64.333C202.334 64.377 201.317 65.011 200.554 66.303L198.608 69.66C199.741 70.062 201.688 70.12 203.138 67.682L203.575 66.936ZM247.404 58.869C245.69 60.389 245.546 62.083 246.621 63.459L246.883 63.803L246.821 63.8899C245.492 65.7458 243.718 68.2255 241.773 70.487L241.775 70.49L241.572 70.719C240.207 72.18 238.526 72.899 237.014 72.928L239.857 68.08C241.687 64.954 240.004 62 237.157 62C234.837 62 233.037 62.918 231.297 65.9L229.813 68.453L228.575 70.545L228.421 70.721C225.924 73.561 223.778 75.392 221.396 76.397L228.159 64.983H226.389C226.389 63.749 225.113 62.113 223.225 62.113C221.601 62.113 219.335 63.378 218.057 65.557L213.819 72.784C212.541 74.992 213.441 77.03 215.879 77.03C216.722 77.03 217.739 76.656 218.756 76.026L217.913 77.43C213.849 78.663 211.293 80.298 211.293 82.536C211.293 85.405 215.735 86.007 217.913 82.336L220.205 78.406C222.621 77.663 224.988 76.259 227.445 73.942C227.424 77.759 232.782 78.509 236.055 74.418H236.723C238.523 74.418 241.368 73.329 242.907 71.522C244.356 69.858 245.487 68.367 247.897 65.127L248.302 65.616C248.679 66.103 248.827 66.706 248.477 67.307L245.284 72.786C244.004 74.996 244.905 77.032 247.345 77.032C248.875 77.032 250.549 76.037 252.187 74.61C252.137 75.996 253.074 77.032 254.806 77.032C255.646 77.032 256.663 76.659 257.68 76.028L256.838 77.43C252.773 78.663 250.222 80.298 250.222 82.536C250.222 85.405 254.662 86.006 256.838 82.336L259.13 78.406C261.59 77.648 264 76.2 266.507 73.807C266.643 75.675 268.165 77.032 270.597 77.032C273.055 77.032 275.496 75.669 277.601 73.842C277.484 77.747 282.911 78.545 286.213 74.42H286.881C287.826 74.42 289.056 74.112 290.238 73.567C289.425 75.64 290.172 77.032 291.899 77.032C293.555 77.032 295.412 75.54 296.863 74.164C296.573 75.769 297.53 77.032 299.447 77.032C301.943 77.032 304.817 74.395 307.315 71.526L307.313 71.524C308.668 69.9796 309.896 68.3481 310.883 67.0383L310.883 67.0381C311.143 66.6925 311.387 66.3693 311.611 66.076C311.211 67.1162 311.017 68.435 310.827 69.7278C310.452 72.2827 310.091 74.736 308.185 74.736C307.169 74.736 306.765 73.646 306.765 73.646L304.875 74.621C304.875 74.621 305.426 77.033 308.185 77.033C308.453 77.033 308.697 77.0074 308.959 76.9799L309.025 76.973C309.04 76.973 309.055 76.9662 309.071 76.9595C309.086 76.9527 309.101 76.946 309.116 76.946C312.192 76.546 315.24 74.136 317.504 71.526C317.331 71.067 316.808 70.608 316.374 70.492L316.171 70.721C315.106 71.9533 313.886 73.0423 312.541 73.961C312.916 72.8472 313.113 71.4997 313.326 70.043C313.657 67.7852 314.025 65.2653 315.155 62.947L312.891 61.742C312.66 62.0549 312.379 62.4432 312.056 62.8882C310.633 64.8511 308.41 67.9181 306.185 70.49V70.492L305.982 70.721C303.806 73.217 301.687 75.193 300.351 75.193C299.684 75.193 299.306 74.734 300.004 73.559L306.448 62.401H303.428L298.058 71.666C295.765 73.73 293.996 74.878 293.414 74.619C292.714 74.3277 293.313 73.3433 293.705 72.6988C293.736 72.6486 293.765 72.6005 293.792 72.555L299.685 62.403H296.665L291.931 70.495L291.732 70.721C290.368 72.184 288.685 72.901 287.174 72.931L290.019 68.082C291.847 64.955 290.169 62.002 287.32 62.002C284.997 62.002 283.197 62.92 281.456 65.905L279.974 68.455L278.737 70.545L278.582 70.723C276.406 73.219 273.618 75.196 271.499 75.196C269.641 75.196 268.539 74.05 269.932 71.641L270.222 71.123C272.166 71.927 275.826 71.553 278.089 67.68L278.527 66.934C280.15 64.18 278.585 62.115 276.117 62.115C273.677 62.115 271.73 63.38 270.454 65.559L267.528 70.524L267.353 70.721C264.854 73.561 262.708 75.394 260.325 76.399L267.089 64.983H265.317C265.317 63.749 264.04 62.115 262.153 62.115C260.528 62.115 258.264 63.378 256.986 65.557L254.09 70.494L254.082 70.49L253.879 70.72C251.703 73.215 249.581 75.194 248.245 75.194C247.578 75.194 247.203 74.734 247.899 73.559L250.917 68.339C251.962 66.532 251.468 65.469 250.48 64.293L248.797 62.283C248.362 61.738 248.362 61.137 248.972 60.563L247.404 58.869ZM237.534 66.967C238.561 65.225 238.094 64.019 237.11 63.929V63.93C236.346 63.86 235.27 64.466 234.342 66.022L232.889 68.459L230.597 72.387C228.797 75.484 232.253 75.943 233.675 73.533L233.703 73.477C233.529 73.189 233.413 72.844 233.413 72.473C233.413 71.498 234.197 70.694 235.183 70.694H235.33L237.534 66.967ZM287.268 63.929C288.252 64.019 288.721 65.225 287.694 66.967L285.488 70.694H285.341C284.355 70.694 283.573 71.498 283.573 72.473C283.573 72.844 283.689 73.189 283.862 73.477L283.832 73.533C282.411 75.943 278.957 75.484 280.757 72.387L283.049 68.459L284.5 66.022C285.427 64.466 286.503 63.86 287.268 63.93V63.929ZM276.053 66.936C277.065 65.193 276.536 64.277 275.568 64.334V64.335C274.816 64.379 273.798 65.013 273.036 66.305L271.088 69.66C272.221 70.062 274.167 70.12 275.618 67.682L276.053 66.936ZM223.165 64.535C224.188 64.529 224.843 65.419 224.01 66.935L221.718 70.895C219.888 73.792 218.058 75.195 216.78 75.195C216.113 75.195 215.735 74.736 216.431 73.561L220.643 66.305C221.353 65.088 222.37 64.54 223.165 64.535ZM262.933 66.935C263.766 65.419 263.111 64.529 262.088 64.535C261.293 64.54 260.276 65.088 259.566 66.305L255.356 73.561C254.662 74.736 255.038 75.195 255.705 75.195C256.981 75.195 258.813 73.792 260.641 70.895L262.933 66.935ZM216.75 79.443L216.749 79.4443C214.459 80.3322 213.732 81.2201 213.732 81.994C213.732 82.797 214.748 82.968 215.386 81.85L216.749 79.4443L216.75 79.444V79.443ZM255.674 79.4443L255.675 79.443V79.444L255.674 79.4443ZM255.674 79.4443L254.313 81.85C253.673 82.968 252.657 82.797 252.657 81.994C252.657 81.2201 253.383 80.3322 255.674 79.4443ZM101.025 67.831H129.947V69.781H101.025V67.831ZM356.977 67.831H328.055V69.781H356.977V67.831Z" fill="#766458"/>
<path fill-rule="evenodd" clip-rule="evenodd" d="M194.824 37.364V45.1H174.008V0.352997H194.824V8.023H181.624V18.827H192.159V26.497H181.624V37.363L194.824 37.364ZM216.17 45.1V37.364L205.573 37.363V0.352997H197.957V45.1H216.17ZM322.7 45.1V37.364H309.499V26.497H320.034V18.827H309.499V8.024H322.7V0.352997H301.884V45.1H322.7ZM297.459 0.353997H289.908L283.115 21.959L276.324 0.353997H268.772V45.101H276.389V23.111L279.371 34.489H286.796L289.843 23.111V45.101H297.459V0.353997ZM257.999 8.024H252.476V37.364H258L257.999 8.024ZM265.679 5.085C265.679 2.463 263.521 0.353997 260.981 0.353997L249.557 0.354997C246.957 0.354997 244.861 2.464 244.861 5.085V40.37C244.861 42.927 246.957 45.1 249.557 45.1H260.981C263.521 45.1 265.679 42.927 265.679 40.37V5.085ZM232.971 28.606L240.649 26.816V40.368C240.649 42.925 238.492 45.098 235.953 45.098H224.528C221.928 45.098 219.833 42.925 219.833 40.368V5.084C219.833 2.462 221.928 0.353997 224.528 0.353997H235.951C238.491 0.353997 240.648 2.462 240.648 5.084V14.161L232.97 15.951V8.023H227.448V37.363H232.97L232.971 28.606ZM170.241 0.353997H162.564L161.994 37.364H161.232L156.344 0.353997H148.792L144.032 37.364H143.208L142.573 0.353997H134.957L136.099 45.1H150.632L152.599 26.626L154.567 45.1H169.037L170.241 0.353997Z" fill="#81B3D3"/>
<path fill-rule="evenodd" clip-rule="evenodd" d="M9.78903 190.348C9.78903 190.27 9.75003 190.193 9.67303 190.115L0.384033 204.98C3.86703 208.154 7.85403 210.709 12.344 212.644C16.835 214.503 21.402 215.51 26.047 215.664H27.325C28.4516 215.661 29.5767 215.584 30.693 215.432C31.8633 215.354 33.0271 215.199 34.177 214.968C35.5792 214.656 36.973 214.307 38.357 213.922C39.7429 213.461 41.1002 212.918 42.422 212.297C45.983 210.361 48.809 207.574 50.899 203.935C53.067 200.296 54.383 196.464 54.847 192.438V191.161C54.925 190.697 54.963 190.232 54.963 189.767V189.186C54.886 185.161 53.763 181.367 51.596 177.806C49.428 174.167 46.176 171.574 41.841 170.026C40.912 169.716 39.751 169.406 38.357 169.096C36.963 168.709 35.531 168.322 34.061 167.935C32.28 167.393 30.576 166.851 28.951 166.309C27.324 165.69 26.086 165.032 25.234 164.335C24.77 163.948 24.344 163.522 23.957 163.058C23.57 162.593 23.299 162.09 23.144 161.548C22.989 161.315 22.873 161.083 22.796 160.851V160.154C22.796 158.606 23.57 157.173 25.118 155.857C26.667 154.464 28.331 153.651 30.111 153.419H31.041C33.751 153.419 36.267 153.999 38.589 155.161C40.9096 156.321 43.1246 157.681 45.209 159.225L51.596 144.941C49.273 143.47 46.718 142.193 43.931 141.109C41.2744 140.04 38.51 139.261 35.686 138.786C34.6068 138.632 33.5225 138.516 32.435 138.438C31.428 138.283 30.422 138.206 29.415 138.206C25.157 138.206 21.054 139.096 17.105 140.877C13.234 142.657 10.06 145.599 7.58203 149.703C6.73103 150.941 6.03403 152.335 5.49203 153.883C4.96015 155.391 4.57144 156.947 4.33103 158.528C4.17603 159.148 4.06003 159.767 3.98303 160.386V163.173C3.98875 163.448 4.0277 163.721 4.09903 163.987C4.17195 164.882 4.28809 165.773 4.44703 166.657C4.66905 167.473 4.9014 168.286 5.14403 169.096C6.38303 172.967 8.66603 175.948 11.996 178.038C15.3115 180.045 18.9145 181.533 22.68 182.451C22.757 182.451 22.834 182.49 22.912 182.567H23.144C23.8862 182.734 24.622 182.928 25.35 183.148C26.1794 183.318 26.9947 183.551 27.789 183.844C29.9011 184.631 31.8645 185.769 33.596 187.212C35.453 188.606 36.383 190.348 36.383 192.438C36.383 192.825 36.344 193.251 36.267 193.715C36.189 194.18 36.073 194.683 35.918 195.225L35.686 195.689L35.453 196.154C34.834 197.16 33.943 198.012 32.783 198.709C31.7235 199.396 30.54 199.869 29.299 200.102C28.989 200.18 28.641 200.257 28.253 200.335H26.976C26.899 200.257 26.821 200.219 26.744 200.219H26.395C26.318 200.142 26.241 200.102 26.163 200.102C22.757 199.947 19.737 198.902 17.105 196.967C14.473 194.954 12.111 192.786 10.021 190.464C9.94403 190.386 9.86703 190.348 9.78903 190.348ZM210.703 158.966C214.264 152.386 219.219 147.353 225.567 143.869C231.915 140.385 238.535 138.643 245.425 138.643C246.354 138.643 247.283 138.682 248.212 138.759C249.219 138.837 250.186 138.914 251.115 138.992C254.007 139.386 256.849 140.086 259.593 141.082C262.445 142.082 265.173 143.407 267.722 145.03C273.219 148.592 277.477 153.353 280.496 159.314C283.515 165.198 285.025 171.354 285.025 177.778C285.025 178.552 284.986 179.365 284.909 180.217C284.909 180.991 284.831 181.765 284.676 182.54C284.516 184.191 284.205 185.823 283.747 187.417C283.349 188.998 282.845 190.55 282.237 192.062C278.986 199.572 273.915 205.417 267.025 209.597C260.135 213.7 252.895 215.752 245.309 215.752C244.765 215.752 244.222 215.713 243.683 215.636H242.173C239.506 215.397 236.864 214.931 234.276 214.242C231.704 213.538 229.212 212.565 226.844 211.339C220.341 207.933 215.231 203.094 211.515 196.823C207.799 190.475 205.941 183.894 205.941 177.081C205.941 176.075 205.98 175.068 206.057 174.061C206.134 173.055 206.289 172.011 206.522 170.926C206.919 168.877 207.462 166.859 208.147 164.887C208.824 162.842 209.679 160.861 210.702 158.965L210.703 158.966ZM298.712 139.976V213.95H318.222V177.486C318.216 175.009 318.106 172.531 317.874 170.054C317.642 167.577 317.332 165.138 316.945 162.738C317.359 163.655 317.747 164.585 318.106 165.525C318.586 166.485 319.05 167.453 319.5 168.428C320.111 169.805 320.77 171.161 321.474 172.493C322.17 173.731 322.906 174.815 323.68 175.744L351.783 213.95H371.176V139.976H351.783V176.324C351.78 177.989 351.819 179.655 351.899 181.318C351.974 182.908 352.09 184.495 352.248 186.079C352.325 186.931 352.403 187.744 352.48 188.518C352.639 189.324 352.755 190.138 352.828 190.956C352.364 190.027 351.899 189.06 351.435 188.054L350.041 185.034C349.429 183.809 348.771 182.608 348.067 181.434C347.472 180.238 346.813 179.075 346.093 177.95L318.222 139.976H298.712ZM380.74 213.95L406.172 139.976H431.372L457.036 213.95H436.83L433.114 200.595H404.546L400.714 213.95H380.74ZM416.392 161.808L408.844 186.311H428.934L421.385 161.808C420.987 160.612 420.6 159.412 420.224 158.208C419.924 156.937 419.653 155.659 419.411 154.376C419.256 153.911 419.14 153.486 419.063 153.098C418.985 152.634 418.908 152.208 418.83 151.821C418.753 152.208 418.637 152.634 418.482 153.098C418.405 153.485 418.327 153.911 418.25 154.376C418.172 154.531 418.134 154.686 418.134 154.84C418.134 154.918 418.094 155.034 418.017 155.189C417.792 156.322 417.521 157.445 417.205 158.556C416.971 159.649 416.699 160.733 416.392 161.808ZM264.122 183.12C263.968 183.972 263.774 184.785 263.542 185.559C262.071 189.662 259.671 192.952 256.342 195.43C253.09 197.83 249.413 199.03 245.31 199.03H243.916L242.523 198.797C241.981 198.72 241.477 198.643 241.013 198.565L239.619 198.101C235.594 196.939 232.419 194.539 230.097 190.901C227.851 187.185 226.613 183.275 226.381 179.172C226.303 178.862 226.265 178.591 226.265 178.359V175.92L226.497 174.294C226.652 173.52 226.807 172.785 226.962 172.088C227.109 171.341 227.303 170.604 227.542 169.881V169.417L227.774 168.952C229.09 164.849 231.413 161.559 234.742 159.082C238.071 156.605 241.71 155.365 245.658 155.365C246.438 155.366 247.216 155.444 247.981 155.598C248.76 155.676 249.535 155.792 250.303 155.946C251.077 156.179 251.852 156.449 252.626 156.759C253.4 157.069 254.174 157.417 254.948 157.804C257.813 159.507 260.058 161.907 261.683 165.004C263.31 168.101 264.316 171.313 264.703 174.643V176.036C264.78 176.497 264.819 176.963 264.819 177.43C264.819 177.894 264.781 178.398 264.703 178.94C264.703 179.482 264.665 180.024 264.587 180.565C264.51 181.417 264.355 182.269 264.122 183.12ZM181.386 206.982C177.747 209.459 173.799 211.162 169.541 212.092C165.283 213.022 160.986 213.602 156.651 213.834C155.414 213.911 154.175 213.95 152.935 213.95H129.129V139.976H154.213C155.452 139.976 156.652 140.014 157.813 140.092C161.993 140.324 166.097 140.905 170.123 141.834C174.189 142.746 178.023 144.485 181.387 146.944C185.722 149.963 189.09 153.95 191.49 158.904C193.89 163.859 195.245 168.968 195.554 174.234C195.632 174.698 195.671 175.162 195.671 175.627V178.53C195.438 184.027 194.122 189.33 191.722 194.44C189.322 199.55 185.877 203.73 181.387 206.982H181.386ZM149.683 197.459C149.451 197.382 149.218 197.343 148.986 197.343V156.582H156.534C158.569 156.652 160.592 156.924 162.573 157.395C164.574 157.853 166.441 158.767 168.031 160.065C170.199 161.692 171.902 163.898 173.141 166.685C174.369 169.353 175.079 172.23 175.231 175.163C175.309 175.472 175.347 175.782 175.347 176.091V177.021C175.352 180.323 174.721 183.595 173.489 186.659C172.328 189.679 170.509 192.079 168.031 193.859C166.483 194.943 164.741 195.756 162.805 196.298C160.87 196.84 158.887 197.19 156.883 197.343C156.109 197.421 155.296 197.498 154.444 197.576H151.309C151.076 197.499 150.806 197.459 150.496 197.459H149.683ZM69.076 213.949V139.975H114.482V156.117H88.934V169.007H112.973V184.801H88.934V197.343H114.482V213.949H69.076ZM351.253 337.235C351.253 336.941 351.31 336.649 351.423 336.358C351.535 336.065 351.703 335.802 351.926 335.566C352.162 335.323 352.443 335.129 352.753 334.994C353.078 334.848 353.443 334.774 353.848 334.774C354.298 334.774 354.73 334.858 355.146 335.026C355.56 335.196 355.916 335.436 356.207 335.753C356.454 336.045 356.644 336.393 356.779 336.797C356.915 337.201 356.981 337.627 356.981 338.078C356.981 338.928 356.83 339.717 356.526 340.436C356.223 341.154 355.783 341.807 355.23 342.356C354.972 342.613 354.689 342.844 354.387 343.047C354.1 343.244 353.802 343.424 353.494 343.587C353.214 343.731 352.974 343.851 352.768 343.939C352.706 343.966 352.644 343.993 352.582 344.022L352.526 344.048L352.496 344.062C352.464 344.077 352.431 344.093 352.398 344.109L351.048 342.119C351.298 342.029 351.572 341.912 351.876 341.767C352.179 341.621 352.466 341.441 352.733 341.228C353.001 341.016 353.23 340.759 353.409 340.468C353.589 340.176 353.689 339.839 353.713 339.458C353.063 339.458 352.488 339.268 351.993 338.884C351.5 338.504 351.253 337.953 351.253 337.235ZM359.257 336.358C359.147 336.649 359.09 336.942 359.09 337.235V337.236C359.09 337.953 359.337 338.504 359.827 338.884C360.318 339.266 360.924 339.469 361.546 339.458C361.524 339.84 361.423 340.176 361.242 340.468C361.063 340.761 360.837 341.014 360.569 341.228C360.299 341.441 360.013 341.621 359.709 341.767C359.404 341.912 359.131 342.03 358.884 342.119L360.232 344.109C360.354 344.05 360.478 343.993 360.602 343.939C360.807 343.851 361.047 343.732 361.327 343.587C361.636 343.426 361.934 343.246 362.22 343.047C362.523 342.844 362.806 342.613 363.065 342.356C363.618 341.806 364.059 341.154 364.363 340.436C364.672 339.689 364.827 338.887 364.818 338.078C364.818 337.628 364.75 337.202 364.616 336.797C364.482 336.393 364.292 336.045 364.042 335.753C363.751 335.436 363.398 335.196 362.981 335.026C362.567 334.858 362.134 334.774 361.684 334.774C361.278 334.774 360.915 334.849 360.588 334.994C360.263 335.138 359.99 335.331 359.763 335.566C359.539 335.802 359.37 336.065 359.257 336.358ZM94.53 278.519C94.53 278.81 94.473 279.103 94.36 279.394C94.2467 279.689 94.0757 279.959 93.857 280.187C93.3513 280.703 92.6564 280.989 91.934 280.979C91.4894 280.98 91.0489 280.895 90.637 280.727C90.2343 280.567 89.8723 280.319 89.577 280.002C89.3207 279.694 89.1262 279.339 89.004 278.957C88.8681 278.544 88.7999 278.112 88.802 277.677C88.802 276.825 88.954 276.037 89.257 275.317C89.5604 274.599 90.001 273.947 90.554 273.397C90.8119 273.14 91.0946 272.909 91.398 272.707C91.6847 272.509 91.9829 272.329 92.291 272.167C92.571 272.023 92.813 271.904 93.016 271.815C93.219 271.728 93.342 271.67 93.386 271.648L94.734 273.636C94.4537 273.74 94.1784 273.858 93.909 273.988C93.606 274.134 93.319 274.313 93.049 274.527C92.779 274.74 92.556 274.993 92.376 275.285C92.196 275.577 92.096 275.915 92.073 276.298C92.723 276.298 93.297 276.488 93.791 276.87C94.283 277.251 94.531 277.8 94.531 278.519H94.53ZM86.021 280.189C86.4487 279.738 86.6892 279.141 86.694 278.519C86.694 277.799 86.447 277.251 85.954 276.869C85.46 276.486 84.886 276.296 84.236 276.296C84.258 275.914 84.359 275.576 84.538 275.284C84.7178 274.994 84.9465 274.737 85.214 274.525C85.481 274.313 85.768 274.134 86.071 273.987C86.375 273.842 86.649 273.724 86.897 273.634L85.55 271.646C85.5094 271.667 85.4036 271.714 85.2347 271.79L85.178 271.816C84.974 271.904 84.734 272.022 84.454 272.166C84.173 272.313 83.875 272.494 83.561 272.706C83.245 272.92 82.965 273.149 82.718 273.397C82.1647 273.946 81.7241 274.599 81.421 275.317C81.116 276.037 80.966 276.825 80.966 277.677C80.9634 278.112 81.0316 278.544 81.168 278.957C81.2894 279.339 81.484 279.694 81.741 280.002C82.0364 280.319 82.3984 280.567 82.801 280.728C83.2131 280.896 83.6541 280.981 84.099 280.98C84.503 280.98 84.869 280.906 85.195 280.76C85.5048 280.625 85.7854 280.431 86.021 280.189ZM332.044 335.393H335.859L347.701 314.757H343.925L332.044 335.393ZM329.682 339.099C329.682 337.861 330.627 336.881 331.863 336.881C333.095 336.881 334.08 337.863 334.08 339.099C334.08 340.335 333.095 341.279 331.863 341.279C330.628 341.279 329.682 340.337 329.682 339.099ZM305.511 331.354L306.601 329.466C310.961 323.398 313.94 325.069 312.595 327.359L310.78 330.483C309.65 332.445 306.346 333.825 305.511 331.354ZM329.186 333.027C329.731 333.171 330.385 333.754 330.603 334.334L330.602 334.332C327.769 337.64 323.954 340.69 320.101 341.202C320.081 341.202 320.062 341.212 320.043 341.222C320.027 341.23 320.012 341.237 319.996 341.237L319.892 341.247C319.566 341.28 319.268 341.309 318.94 341.309C315.489 341.309 314.798 338.259 314.798 338.259L317.16 337.023C317.16 337.023 317.67 338.405 318.94 338.405C321.33 338.405 321.78 335.296 322.249 332.058C322.486 330.42 322.727 328.75 323.227 327.432C322.958 327.79 322.666 328.183 322.355 328.602C321.117 330.271 319.565 332.362 317.852 334.336C317.836 334.325 317.819 334.314 317.805 334.302C317.806 334.311 317.812 334.319 317.818 334.326C317.821 334.33 317.823 334.333 317.825 334.336C314.701 337.97 311.103 341.311 307.98 341.311C304.927 341.311 304.31 339.675 304.31 336.443V333.429L299.987 340.949H296.171L298.276 337.295C295.649 339.598 292.601 341.311 289.535 341.311C286.377 341.311 284.443 339.458 284.409 336.948C281.931 339.425 279.318 341.311 276.972 341.311C274.572 341.311 273.376 339.714 273.737 337.679C271.922 339.422 269.595 341.311 267.527 341.311C265.943 341.311 265.015 340.37 265.027 338.833C263.245 340.065 260.587 340.949 258.667 341.203C258.663 341.203 258.659 341.204 258.654 341.204L258.651 341.205L258.646 341.207C258.635 341.21 258.625 341.215 258.614 341.221L258.614 341.221C258.609 341.224 258.604 341.226 258.599 341.228C258.593 341.231 258.587 341.234 258.581 341.236C258.574 341.238 258.568 341.239 258.561 341.239L258.469 341.248L258.469 341.248C258.141 341.281 257.839 341.311 257.505 341.311C254.055 341.311 253.365 338.261 253.365 338.261L255.726 337.025C255.726 337.025 256.236 338.407 257.506 338.407C259.895 338.407 260.345 335.3 260.814 332.063C261.051 330.425 261.293 328.753 261.794 327.435C260.45 329.215 253.255 338.479 251.112 340.949C250.568 340.586 250.021 340.113 249.696 339.641C253.111 335.646 261.831 324.091 263.394 321.948L266.226 323.475C264.814 326.41 264.353 329.599 263.941 332.457L263.941 332.458V332.458C263.674 334.305 263.428 336.013 262.957 337.425C263.256 337.221 263.67 336.999 264.114 336.761C264.838 336.372 265.641 335.942 266.147 335.481L273.485 322.786H277.263L269.889 335.647L269.865 335.688L269.828 335.75L269.78 335.83C269.289 336.646 268.54 337.892 269.416 338.262C270.145 338.588 272.357 337.135 275.23 334.52L281.949 322.786H285.729L277.663 336.919C276.793 338.409 277.263 338.989 278.099 338.989C279.771 338.989 282.422 336.483 285.146 333.323L285.401 333.031C285.456 333.055 285.515 333.091 285.575 333.127C285.594 333.139 285.614 333.151 285.634 333.163L289.352 326.783C290.95 324.023 293.386 322.423 296.437 322.423C299.523 322.423 301.486 325.039 299.452 328.527L298.907 329.471H295.817L296.361 328.527C298.615 324.603 294.763 323.985 292.583 327.727L288.699 334.484C286.955 337.535 288.335 338.988 290.66 338.988C293.312 338.988 296.8 336.482 299.523 333.322L299.779 333.03C300.029 333.15 300.261 333.303 300.468 333.487L311.243 314.792H315.022L309.647 324.129C313.498 320.603 319.237 322.603 315.715 328.633L314.699 330.376C312.919 333.462 310.121 335.207 307.469 334.88V336.442C307.469 338.149 308.269 338.985 309.103 338.985C310.776 338.985 313.426 336.479 316.153 333.319L316.406 333.027C316.414 333.03 316.423 333.035 316.431 333.041C316.438 333.045 316.445 333.049 316.451 333.052C316.446 333.045 316.436 333.037 316.43 333.027C319.236 329.743 322.043 325.822 323.82 323.339L323.82 323.339L323.821 323.338C324.207 322.799 324.544 322.328 324.822 321.946L327.657 323.473C326.244 326.409 325.784 329.599 325.372 332.458C325.106 334.304 324.859 336.012 324.389 337.423C326.075 336.258 327.602 334.879 328.931 333.319L329.186 333.027ZM216.012 333.248H215.829C214.594 333.248 213.613 334.265 213.613 335.503C213.613 335.975 213.758 336.41 213.976 336.772L213.939 336.845C212.16 339.895 207.836 339.315 210.089 335.391L212.959 330.414L214.775 327.326C217.428 322.821 221.06 324.601 218.772 328.526L216.012 333.248ZM188.51 347.563C188.51 348.579 189.782 348.796 190.582 347.379L192.325 344.329C189.419 345.457 188.51 346.583 188.51 347.563ZM161.84 333.649C159.552 337.244 157.299 338.952 155.737 338.952C154.902 338.952 154.43 338.372 155.301 336.881L160.568 327.688C162.603 324.166 166.635 325.073 164.781 328.489L161.84 333.649ZM153.201 316.137C152.148 316.137 150.912 316.972 149.786 318.899L144.337 328.343H145.1C150.908 329.295 155.272 321.986 155.272 318.462C155.272 317.081 154.619 316.137 153.201 316.137ZM242.563 332.993L242.309 333.285C239.587 336.445 236.934 338.952 235.262 338.952C234.426 338.952 233.955 338.372 234.826 336.88L240.276 327.327C241.912 324.457 240.346 322.386 238.241 322.386C236.605 322.386 234.9 323.257 233.01 325.219L234.427 322.75H230.648L224.56 333.283C224.41 333.17 224.248 333.073 224.078 332.993L223.823 333.285C222.117 335.137 220.009 336.047 218.12 336.084L221.68 329.944C223.968 325.982 221.862 322.243 218.3 322.243C215.393 322.243 213.142 323.405 210.961 327.183L209.109 330.416L207.489 333.186C207.38 333.114 207.266 333.05 207.147 332.996L206.893 333.287C203.768 336.882 201.116 339.207 198.138 340.482L208.493 322.752H204.714L198.031 334.378C195.124 337.065 192.871 338.554 192.145 338.228C191.271 337.859 192.016 336.616 192.506 335.798L192.57 335.692L192.617 335.612L199.992 322.752H196.214L190.186 333.182C190.081 333.111 189.97 333.049 189.855 332.995L189.601 333.287C186.876 336.447 184.225 338.954 182.553 338.954C181.718 338.954 181.246 338.374 182.117 336.882L187.566 327.329C189.201 324.459 187.639 322.387 185.532 322.387C183.897 322.387 182.189 323.259 180.301 325.221L181.718 322.752H177.938L171.9 333.197C171.786 333.12 171.666 333.053 171.541 332.995L171.287 333.287C168.564 336.447 165.912 338.954 164.239 338.954C163.404 338.954 162.932 338.374 163.803 336.882L169.907 326.202H167.764C167.909 324.604 166.274 322.388 163.803 322.388C161.77 322.388 158.934 323.985 157.338 326.748L153.435 333.484C153.175 333.251 152.878 333.069 152.607 332.996L152.353 333.288L152.206 333.459C149.552 336.538 147.468 338.955 143.793 338.955C141.214 338.955 139.653 336.376 141.903 332.524L142.958 330.672C143.648 330.779 144.339 330.856 145.1 330.856C149.133 330.856 153.711 328.784 156.69 323.589C157.743 321.736 158.216 319.993 158.216 318.503C158.216 315.088 155.999 312.873 153.203 312.873C151.132 312.873 148.661 314.327 146.955 317.305L141.069 327.442C138.853 326.279 137.689 324.172 137.689 322.064C137.689 320.321 138.489 318.577 140.123 317.307L138.888 315.089C136.198 317.017 135.001 319.593 135.001 322.139C135.001 325.152 136.709 328.059 139.759 329.657L138.634 331.621C135.983 336.199 137.544 341.283 142.884 341.283C146.988 341.283 148.851 339.51 151.341 337.141L151.341 337.141L151.565 336.928C150.742 339.302 151.938 341.283 154.613 341.283C156.139 341.283 158.028 340.303 159.845 338.814C160.025 340.268 161.189 341.283 163.113 341.283C164.923 341.283 166.891 340.159 168.833 338.51L167.441 340.921H171.255L177.031 330.858C182.808 323.628 185.388 324.571 183.753 327.37L178.849 335.904C177.251 338.704 178.377 341.28 181.428 341.28C183.461 341.28 185.694 339.86 187.868 337.87C187.415 339.948 188.374 341.28 190.256 341.28C192.073 341.28 194.142 339.754 195.851 338.23L193.78 341.79C188.657 343.314 185.46 345.423 185.46 348.255C185.46 351.888 191.02 352.652 193.742 348.002L196.648 343.024C199.807 342.03 202.921 340.071 206.173 336.852C205.653 342.129 212.681 343.332 216.919 337.974H217.754C219.134 337.974 221.002 337.454 222.688 336.524L220.148 340.918H223.963L229.739 330.855C235.516 323.625 238.096 324.568 236.46 327.366L231.556 335.904C229.958 338.703 231.083 341.28 234.136 341.28C237.262 341.28 240.856 337.938 243.982 334.305C243.727 333.794 243.074 333.212 242.564 332.994L242.563 332.993ZM354.982 302.942C356.579 302.942 358.904 301.162 361.194 297.421L364.061 292.479H364.026C365.879 289.064 361.847 288.155 359.812 291.679L354.545 300.872C353.675 302.362 354.147 302.942 354.982 302.942ZM325.007 297.64C322.717 301.234 320.464 302.942 318.903 302.942C318.067 302.942 317.596 302.362 318.466 300.872L323.734 291.679C325.768 288.155 329.8 289.064 327.948 292.479L325.007 297.64ZM283.02 311.554C283.02 312.57 284.293 312.787 285.09 311.37L286.799 308.32C283.892 309.447 283.02 310.573 283.02 311.554ZM293.118 282.889C294.245 280.963 295.48 280.129 296.535 280.129C302.529 280.129 298.06 294.564 288.433 292.334H287.67L293.118 282.889ZM370.527 297.276L370.782 296.986C371.293 297.203 371.946 297.784 372.202 298.288C369.077 301.923 365.482 305.264 362.357 305.264C360.433 305.264 359.27 304.249 359.088 302.794C357.27 304.284 355.381 305.264 353.856 305.264C351.578 305.264 350.374 303.824 350.574 301.931C348.428 303.88 346.602 305.264 344.592 305.264C341.541 305.264 340.417 302.686 342.014 299.888L346.917 291.35C348.554 288.553 345.974 287.608 340.197 294.837L334.42 304.902H330.607L331.999 302.49C330.056 304.139 328.089 305.264 326.279 305.264C324.356 305.264 323.192 304.248 323.009 302.794C321.194 304.284 319.304 305.264 317.779 305.264C315.624 305.264 314.436 303.978 314.48 302.24C312.443 304.025 309.994 305.264 308.095 305.264C305.043 305.264 303.916 302.685 305.515 299.89L309.512 292.953C309.948 292.189 309.767 291.425 309.294 290.809L308.787 290.19C305.939 294.062 304.515 295.965 302.837 297.936C302.927 298.046 303.006 298.165 303.073 298.291C298.931 303.087 295.08 305.775 291.155 307.01L288.248 311.987C285.526 316.637 279.966 315.873 279.966 312.241C279.966 309.407 283.128 307.336 288.248 305.776L289.231 304.066C288.067 304.794 286.724 305.266 285.126 305.266C279.784 305.266 279.312 300.181 281.964 295.603L283.091 293.64C280.04 292.042 278.331 289.136 278.331 286.12C278.331 283.577 279.529 280.999 282.219 279.073L283.452 281.29C281.82 282.56 281.02 284.305 281.02 286.048C281.02 288.155 282.182 290.262 284.398 291.423L290.283 281.288C291.989 278.31 294.461 276.856 296.533 276.856C308.375 276.856 301.872 294.838 288.429 294.838C287.711 294.834 286.995 294.774 286.287 294.657L285.232 296.509C282.982 300.36 283.452 302.939 286.032 302.939C288.974 302.939 291.264 300.432 293.262 296.908L293.661 296.253H297.439L292.644 304.463C295.615 303.196 298.261 300.881 301.374 297.301C301.31 297.229 301.249 297.157 301.193 297.084C301.18 297.068 301.167 297.051 301.154 297.034C301.141 297.016 301.128 296.999 301.116 296.981C303.523 294.153 305.721 291.048 307.379 288.706L307.379 288.705L307.513 288.516L307.184 288.08C305.841 286.336 306.022 284.194 308.166 282.267L310.128 284.41C309.365 285.137 309.365 285.9 309.91 286.59L312.016 289.134C313.25 290.624 313.868 291.967 312.561 294.257L308.783 300.868C307.913 302.358 308.383 302.938 309.22 302.938C310.89 302.938 313.918 300.432 316.64 297.273L316.846 297.039L320.498 290.733C322.096 287.974 324.931 286.375 326.966 286.375C329.438 286.375 331.072 288.592 330.926 290.19H333.07L326.967 300.872C326.097 302.362 326.568 302.942 327.403 302.942C329.075 302.942 331.726 300.436 334.449 297.276L334.705 296.984C334.83 297.042 334.95 297.11 335.065 297.187L341.102 286.74H344.881L343.464 289.21C345.356 287.246 347.06 286.375 348.696 286.375C350.802 286.375 352.367 288.447 350.73 291.317L345.28 300.872C344.411 302.362 344.881 302.942 345.718 302.942C347.39 302.942 349.667 300.436 352.39 297.276L352.645 296.984C352.699 297.008 352.757 297.043 352.815 297.078L352.84 297.093C352.853 297.101 352.866 297.109 352.879 297.116L356.577 290.736C358.176 287.976 361.008 286.377 363.043 286.377C364.606 286.377 365.842 287.285 366.496 288.339L372.053 278.748H375.832L363.043 300.872C362.173 302.363 362.645 302.943 363.48 302.943C365.153 302.943 367.807 300.436 370.527 297.276ZM258.502 291.681C260.682 287.939 264.535 288.556 262.281 292.48L261.736 293.424C259.919 296.513 257.484 296.439 256.068 295.931L258.502 291.681ZM267.113 298.293C263.991 301.927 259.738 305.268 255.451 305.268C252.359 305.268 250.436 303.492 250.326 301.061C247.896 303.461 245.346 305.266 243.05 305.266C239.998 305.266 238.872 302.688 240.47 299.89L245.375 291.352C247.01 288.555 244.43 287.61 238.617 294.912L232.877 304.904H229.062L230.561 302.304C228.547 304.055 226.499 305.268 224.621 305.268C221.57 305.268 220.444 302.69 222.042 299.891L229.635 286.738H226.185L227.275 284.921H230.69L234.25 278.746H238.028L234.468 284.921H237.593L236.503 286.738H233.413L225.311 300.872C224.441 302.362 224.913 302.942 225.748 302.942C227.42 302.942 230.071 300.436 232.796 297.275L233.051 296.984C233.203 297.053 233.348 297.138 233.483 297.236L244.139 278.746H247.917L241.887 289.246C243.774 287.284 245.518 286.375 247.153 286.375C249.261 286.375 250.824 288.447 249.189 291.317L243.739 300.872C242.87 302.363 243.34 302.943 244.176 302.943C245.848 302.943 248.499 300.437 251.223 297.277L251.478 296.985C251.514 297.001 251.552 297.029 251.59 297.049L255.269 290.736C256.868 287.975 259.302 286.377 262.352 286.377C265.441 286.377 267.403 288.992 265.368 292.481L264.823 293.425C261.989 298.33 257.412 298.801 254.977 297.785L254.614 298.438C252.871 301.49 254.251 302.943 256.576 302.943C259.23 302.943 262.717 300.437 265.443 297.277L265.696 296.985C266.205 297.203 266.86 297.783 267.113 298.293ZM127.98 291.68C130.16 287.938 134.01 288.555 131.756 292.479L131.212 293.423C129.397 296.511 126.961 296.438 125.545 295.929L127.98 291.68ZM156.367 291.68L151.099 300.871V300.872C150.227 302.361 150.7 302.942 151.534 302.942C153.095 302.942 155.35 301.233 157.638 297.638L160.58 292.479C162.434 289.063 158.401 288.154 156.367 291.68ZM205.083 291.68C207.263 287.938 211.113 288.555 208.859 292.479L208.314 293.423C206.499 296.511 204.064 296.437 202.648 295.929L205.083 291.68ZM150.409 305.266C147.845 305.266 146.648 303.446 147.275 301.206C144.634 303.532 141.922 305.266 138.834 305.26C135.571 305.26 133.615 303.28 133.713 300.643C130.938 303.245 128.254 305.26 124.925 305.26C120.458 305.26 118.422 301.555 120.785 297.522L124.745 290.73C126.342 287.968 128.778 286.37 131.828 286.37C134.916 286.37 136.878 288.987 134.844 292.473L134.299 293.419C131.465 298.322 126.887 298.795 124.453 297.777L124.09 298.431C122.346 301.482 123.727 302.935 126.053 302.935C128.704 302.935 131.927 300.428 134.651 297.268L134.905 296.978C135.026 297.033 135.142 297.098 135.252 297.172L139.008 290.729C140.604 287.969 142.686 286.369 145.738 286.369C148.825 286.369 150.786 288.986 148.752 292.473L148.208 293.418H145.118L145.663 292.473C147.917 288.55 144.066 287.933 141.886 291.675L137.999 298.431C136.256 301.482 137.638 302.935 139.962 302.935C142.614 302.935 145.748 300.428 148.472 297.268L148.726 296.978C148.932 297.075 149.126 297.197 149.302 297.341L153.132 290.729C154.73 287.969 157.564 286.369 159.598 286.369C162.07 286.369 163.704 288.587 163.558 290.185H165.702L159.599 300.867C158.728 302.357 159.2 302.937 160.035 302.937C161.707 302.937 164.358 300.43 167.083 297.27L167.337 296.98C167.418 297.014 167.504 297.067 167.59 297.12L167.624 297.141L173.637 286.736H177.415L170.042 299.596C170.011 299.648 169.979 299.702 169.944 299.759L169.935 299.774L169.934 299.776C169.443 300.593 168.692 301.841 169.568 302.211C170.297 302.538 172.512 301.085 175.382 298.469L182.102 286.735H185.881L177.816 300.87C176.945 302.36 177.417 302.94 178.252 302.94C179.924 302.94 182.576 300.433 185.3 297.273L185.435 297.12C185.42 297.1 185.403 297.08 185.387 297.06C185.365 297.034 185.344 297.008 185.325 296.982C188.12 293.713 190.914 289.811 192.693 287.326L192.693 287.326C193.089 286.774 193.434 286.292 193.718 285.902L196.551 287.428C195.139 290.364 194.678 293.554 194.265 296.412C193.999 298.259 193.752 299.967 193.281 301.379C194.967 300.213 196.494 298.833 197.823 297.273L198.077 296.982C198.095 296.987 198.114 296.996 198.133 297.006L198.133 297.006C198.139 297.009 198.146 297.013 198.152 297.016C198.162 297.02 198.171 297.025 198.181 297.028L201.851 290.734C203.447 287.974 205.884 286.376 208.934 286.376C212.021 286.376 213.983 288.991 211.949 292.48L211.404 293.423C208.569 298.328 203.991 298.799 201.559 297.783L201.195 298.437C199.451 301.488 200.832 302.942 203.158 302.942C205.808 302.942 209.296 300.435 212.021 297.275L212.275 296.983C212.783 297.201 213.437 297.781 213.691 298.291C210.567 301.926 206.316 305.267 202.029 305.267C198.89 305.267 196.962 303.436 196.904 300.95C194.52 303.103 191.767 304.792 188.991 305.159C188.973 305.159 188.956 305.168 188.938 305.176C188.92 305.185 188.902 305.194 188.883 305.194L188.766 305.206C188.447 305.238 188.153 305.267 187.829 305.267C184.377 305.267 183.687 302.215 183.687 302.215L186.05 300.98C186.05 300.98 186.56 302.362 187.83 302.362C190.219 302.362 190.669 299.254 191.138 296.018V296.018C191.375 294.379 191.617 292.708 192.118 291.39C191.836 291.764 191.529 292.175 191.201 292.616L191.201 292.617L191.2 292.617L191.2 292.618C189.998 294.233 188.51 296.232 186.87 298.14C186.883 298.161 186.899 298.182 186.914 298.203C186.935 298.232 186.955 298.262 186.97 298.291C183.845 301.925 180.25 305.267 177.125 305.267C174.728 305.267 173.527 303.669 173.891 301.633C172.076 303.377 169.751 305.267 167.678 305.267C165.817 305.267 164.86 303.963 165.278 301.921C163.127 303.877 160.922 305.267 158.909 305.267C156.985 305.267 155.822 304.25 155.639 302.797C153.824 304.286 151.934 305.266 150.409 305.266ZM110.403 287.246L113.454 282.015C116.214 277.258 119.739 280.053 117.849 283.614C116.399 286.338 114.254 287.174 110.403 287.247V287.246ZM100.885 303.16C102.302 303.958 104.082 304.466 106.335 304.466C115.489 304.466 119.014 291.426 110.148 289.571L109.131 289.463L102.775 300.471C102.192 301.451 101.539 302.396 100.885 303.16Z" fill="white"/>
</svg>
